<svg xmlns="http://www.w3.org/2000/svg" viewBox="0 0 120 40" fill="none">
  <path d="M72.7 10.6c2-2.4 3.2-5.7 2.9-8.6-2.9.1-6.3 1.9-8.3 4.2-1.8 2.1-3.4 5.4-3 8.5 3 .2 6.2-1.5 8.4-4.1Z" fill="#111"/>
  <path d="M60.3 12.4c-4.5 0-8.4 2.5-10.7 6.4-3.8 6.5-1 16.1 2.7 21.4 1.8 2.6 4 5.5 6.9 5.4 2.7-.1 3.7-1.7 7-1.7 3.3 0 4.2 1.7 7 1.6 2.9 0 4.8-2.6 6.6-5.2 2.1-3 3-6 3-6.2-.1 0-5.8-2.2-5.8-8.8-.1-5.6 4.5-8.2 4.7-8.3-2.6-3.8-6.6-4.3-8-4.4-3.4-.3-6.3 1.9-8 1.9-1.7 0-4.2-1.8-7.1-1.8h-.3Z" fill="#111"/>
  <text x="88" y="25" font-family="Arial, Helvetica, sans-serif" font-size="11" font-weight="700" fill="#111">Apple</text>
</svg>
