<svg xmlns="http://www.w3.org/2000/svg" viewBox="0 0 120 40" fill="none">
  <g fill="#111" transform="translate(18 6)">
    <path d="M14 15c-4-4.8-5.8-9.5-4.9-13.7 3.1 2.2 5.7 6.5 6.4 13.7H14Z"/>
    <path d="M17 15c-1.5-6.8-.9-11.8 2-15 2.4 3.1 2.8 8.2.8 15H17Z"/>
    <path d="M22 15c1-7.2 3.5-11.5 6.5-13.8.9 4.3-.9 9-5 13.8H22Z"/>
    <path d="M14.5 17h9c-1.2 4.5-3.4 7.9-4.5 9.4-1.2-1.5-3.3-4.9-4.5-9.4Z"/>
    <path d="M11.5 16.5c-4.1-.4-7.4-2-9.5-4.8 3.5-1 7.1-.2 10.5 2.4l-1 2.4Z"/>
    <path d="M26.5 16.5c4.1-.4 7.4-2 9.5-4.8-3.5-1-7.1-.2-10.5 2.4l1 2.4Z"/>
  </g>
  <text x="56" y="24" font-family="Arial, Helvetica, sans-serif" font-size="11" font-weight="700" fill="#111">Huawei</text>
</svg>
